<?xml version="1.0" encoding="UTF-8" standalone="no"?>
<!DOCTYPE svg PUBLIC "-//W3C//DTD SVG 1.1//EN" "http://www.w3.org/Graphics/SVG/1.1/DTD/svg11.dtd">
<svg width="100%" height="100%" viewBox="0 0 887 887" version="1.1" xmlns="http://www.w3.org/2000/svg" xmlns:xlink="http://www.w3.org/1999/xlink" xml:space="preserve" xmlns:serif="http://www.serif.com/" style="fill-rule:evenodd;clip-rule:evenodd;stroke-linejoin:round;stroke-miterlimit:2;">
	<style>
		#cursor {
		animation: blink 1s steps(1, end) infinite;
		}
		
		@keyframes blink {
		0% { opacity: 1; }
		50% { opacity: 0; }
		100% { opacity: 1; }
		}
	</style>
	<g id="Artboard1" transform="matrix(0.983066,0,0,0.983066,-270.674,-63.6504)">
		<rect x="275.336" y="64.747" width="902.014" height="902.014" style="fill:none;" />
		<clipPath id="_clip1">
			<rect x="275.336" y="64.747" width="902.014" height="902.014" />
		</clipPath>
		<g clip-path="url(#_clip1)">
			<g transform="matrix(1.33475,0,0,1.33475,-294.565,-78.3766)">
				<rect x="-15.818" y="-39.171" width="1570.87" height="1110.64" style="fill:rgb(41,45,62);" />
			</g>
			<g transform="matrix(1.33475,0,0,1.4491,-284.752,-199.256)">
				<rect x="-3.976" y="370.698" width="1502.82" height="257.259" style="fill:rgb(28,31,43);" />
			</g>
			<g id="labs" transform="matrix(1.33475,0,0,1.33475,-338.177,-143.799)">
				<path d="M637.223,405.717L579.274,405.717L579.274,423.326L613.318,423.326L613.318,530.794C613.318,552.886 626.445,566.546 649.176,566.546C661.769,566.546 671.481,563.558 678.204,560.143L672.121,543.494C666.572,545.735 660.702,547.23 654.299,547.23C644.16,547.23 637.223,543.281 637.223,532.929L637.223,405.717ZM1012.88,548.19C999.649,548.19 988.016,543.281 979.265,536.131L966.565,550.645C976.917,559.716 991.965,566.546 1012.88,566.546C1038.82,566.546 1062.61,555.874 1062.61,531.542C1062.61,510.091 1048.21,502.513 1026.22,496.43C1003.7,490.134 997.514,487.039 997.514,478.608C997.514,471.031 1003.6,466.121 1018.86,466.121C1031.99,466.121 1042.23,470.284 1050.98,476.047L1061.01,460.999C1050.98,453.635 1037.11,447.979 1018.22,447.979C990.471,447.979 973.182,460.999 973.182,480.315C973.182,500.059 987.909,507.956 1010.21,513.612C1033.59,519.695 1037.32,524.071 1037.32,533.142C1037.32,542.534 1027.82,548.19 1012.88,548.19ZM801.894,536.024L801.894,485.758C801.894,462.066 787.167,447.979 756.965,447.979C745.439,447.979 731.565,450.327 717.478,455.663L723.347,472.525C734.873,468.576 745.866,466.655 753.336,466.655C769.238,466.655 778.416,472.525 778.416,487.146L778.416,494.509L762.301,494.509C727.936,494.509 708.727,507.849 708.727,531.542C708.727,552.459 722.921,566.546 745.759,566.546C760.166,566.546 773.506,561.317 781.724,550.858C785.779,560.676 793.997,565.159 805.096,566.439L810.432,550.218C804.456,548.297 801.894,544.882 801.894,536.024ZM867.741,464.414L867.741,403.049L843.836,405.717L843.836,563.665L864.86,563.665L866.14,552.566C873.397,561.957 883.429,566.546 895.809,566.546C924.944,566.546 940.632,541.573 940.632,507.102C940.632,471.244 928.359,447.979 898.69,447.979C886.204,447.979 875.532,454.169 867.741,464.414ZM753.016,548.937C740.316,548.937 733.806,542.534 733.806,530.474C733.806,517.348 742.664,509.45 765.182,509.45L778.416,509.45L778.416,534.316C772.653,543.601 762.621,548.937 753.016,548.937ZM889.832,548.297C880.654,548.297 872.971,543.388 867.741,535.277L867.741,482.557C873.397,473.912 881.508,466.442 892.18,466.442C907.015,466.442 915.339,478.288 915.339,507.209C915.339,535.49 905.947,548.297 889.832,548.297Z" style="fill:rgb(166,172,205);fill-rule:nonzero;" />
			</g>
			<g id="excl" transform="matrix(1.33475,0,0,1.33475,-338.177,-143.799)">
				<path d="M517.376,416.389L491.336,416.389L494.324,512.972L514.601,512.972L517.376,416.389ZM504.569,534.21C495.498,534.21 488.454,541.467 488.454,550.324C488.454,559.289 495.498,566.546 504.569,566.546C513.747,566.546 520.791,559.289 520.791,550.324C520.791,541.467 513.747,534.21 504.569,534.21Z" style="fill:rgb(137,221,255);fill-rule:nonzero;" />
			</g>
			<g id="cursor" transform="matrix(1.33475,0,0,1.36565,-675.103,-167.358)">
				<rect x="1333.81" y="369.806" width="23.652" height="272.979" style="fill:rgb(255,204,0);" />
			</g>
		</g>
	</g>
</svg>
